<svg id="Layer_1" data-name="Layer 1" xmlns="http://www.w3.org/2000/svg" viewBox="0 0 1280 1280">
  <defs>
    <style>
      .cls-1 {
        fill: #0f2c56;
      }

      .cls-2 {
        fill: #fff;
      }

      .cls-3, .cls-6 {
        fill: #ffb81a;
      }

      .cls-4 {
        fill: #0074b8;
      }

      .cls-5 {
        fill: #0038a8;
      }

      .cls-6 {
        stroke: #fff;
        stroke-miterlimit: 10;
        stroke-width: 5px;
      }
    </style>
  </defs>
  <title>SPARTANS GROUP LOGO Navy blue &amp;amp; yellow circle</title>
  <path class="cls-1" d="M1117.357,647.987a471.092,471.092,0,1,1-37.149-183.928A469.583,469.583,0,0,1,1117.357,647.987Z"/>
  <path class="cls-2" d="M1090.105,461.339A483.608,483.608,0,1,0,1128,649,480.383,480.383,0,0,0,1090.105,461.339ZM645.9,1108.662c-253.459,0-459.662-206.2-459.662-459.662S392.445,189.338,645.9,189.338,1105.566,395.541,1105.566,649,899.363,1108.662,645.9,1108.662Z"/>
  <g>
    <path class="cls-3" d="M1057.408,475.848a447.38,447.38,0,1,0,35.055,173.6A444.548,444.548,0,0,0,1057.408,475.848ZM646.451,1086.83c-241.172,0-437.377-196.2-437.377-437.377S405.279,212.065,646.451,212.065s437.388,196.215,437.388,437.388S887.623,1086.83,646.451,1086.83Z"/>
    <path class="cls-3" d="M646.451,212.065c-241.172,0-437.377,196.215-437.377,437.388S405.279,1086.83,646.451,1086.83s437.388-196.2,437.388-437.377S887.623,212.065,646.451,212.065Zm0,872.232c-239.774,0-434.844-195.071-434.844-434.844S406.677,214.6,646.451,214.6s434.854,195.07,434.854,434.854S886.235,1084.3,646.451,1084.3Zm0-872.232c-241.172,0-437.377,196.215-437.377,437.388S405.279,1086.83,646.451,1086.83s437.388-196.2,437.388-437.377S887.623,212.065,646.451,212.065Zm0,872.232c-239.774,0-434.844-195.071-434.844-434.844S406.677,214.6,646.451,214.6s434.854,195.07,434.854,434.854S886.235,1084.3,646.451,1084.3Zm0-872.232c-241.172,0-437.377,196.215-437.377,437.388S405.279,1086.83,646.451,1086.83s437.388-196.2,437.388-437.377S887.623,212.065,646.451,212.065Zm0,872.232c-239.774,0-434.844-195.071-434.844-434.844S406.677,214.6,646.451,214.6s434.854,195.07,434.854,434.854S886.235,1084.3,646.451,1084.3Zm0-872.232c-241.172,0-437.377,196.215-437.377,437.388S405.279,1086.83,646.451,1086.83s437.388-196.2,437.388-437.377S887.623,212.065,646.451,212.065Zm0,872.232c-239.774,0-434.844-195.071-434.844-434.844S406.677,214.6,646.451,214.6s434.854,195.07,434.854,434.854S886.235,1084.3,646.451,1084.3Zm0-872.232c-241.172,0-437.377,196.215-437.377,437.388S405.279,1086.83,646.451,1086.83s437.388-196.2,437.388-437.377S887.623,212.065,646.451,212.065Zm0,872.232c-239.774,0-434.844-195.071-434.844-434.844S406.677,214.6,646.451,214.6s434.854,195.07,434.854,434.854S886.235,1084.3,646.451,1084.3Zm0-872.232c-241.172,0-437.377,196.215-437.377,437.388S405.279,1086.83,646.451,1086.83s437.388-196.2,437.388-437.377S887.623,212.065,646.451,212.065Zm0,872.232c-239.774,0-434.844-195.071-434.844-434.844S406.677,214.6,646.451,214.6s434.854,195.07,434.854,434.854S886.235,1084.3,646.451,1084.3Zm413.288-609.432A449.86,449.86,0,1,0,1095,649.453,447.013,447.013,0,0,0,1059.739,474.865Zm-2.331,348.183a447.38,447.38,0,1,1,35.055-173.6A444.554,444.554,0,0,1,1057.408,823.048ZM646.451,212.065c-241.172,0-437.377,196.215-437.377,437.388S405.279,1086.83,646.451,1086.83s437.388-196.2,437.388-437.377S887.623,212.065,646.451,212.065Zm0,872.232c-239.774,0-434.844-195.071-434.844-434.844S406.677,214.6,646.451,214.6s434.854,195.07,434.854,434.854S886.235,1084.3,646.451,1084.3Zm0-872.232c-241.172,0-437.377,196.215-437.377,437.388S405.279,1086.83,646.451,1086.83s437.388-196.2,437.388-437.377S887.623,212.065,646.451,212.065Zm0,872.232c-239.774,0-434.844-195.071-434.844-434.844S406.677,214.6,646.451,214.6s434.854,195.07,434.854,434.854S886.235,1084.3,646.451,1084.3Zm0-872.232c-241.172,0-437.377,196.215-437.377,437.388S405.279,1086.83,646.451,1086.83s437.388-196.2,437.388-437.377S887.623,212.065,646.451,212.065Zm0,872.232c-239.774,0-434.844-195.071-434.844-434.844S406.677,214.6,646.451,214.6s434.854,195.07,434.854,434.854S886.235,1084.3,646.451,1084.3Zm0-872.232c-241.172,0-437.377,196.215-437.377,437.388S405.279,1086.83,646.451,1086.83s437.388-196.2,437.388-437.377S887.623,212.065,646.451,212.065Zm0,872.232c-239.774,0-434.844-195.071-434.844-434.844S406.677,214.6,646.451,214.6s434.854,195.07,434.854,434.854S886.235,1084.3,646.451,1084.3Zm0-872.232c-241.172,0-437.377,196.215-437.377,437.388S405.279,1086.83,646.451,1086.83s437.388-196.2,437.388-437.377S887.623,212.065,646.451,212.065Zm0,872.232c-239.774,0-434.844-195.071-434.844-434.844S406.677,214.6,646.451,214.6s434.854,195.07,434.854,434.854S886.235,1084.3,646.451,1084.3Z"/>
  </g>
  <g>
    <path class="cls-2" d="M838.969,396.824a286.724,286.724,0,0,0-115.191-60.94,22.807,22.807,0,0,1-3.22-.991l-14.616-3.22c-11.643-2.477-36.415-6.689-70.105-5.45l-14.12.743c-9.661.743-35.672,4.212-69.115,16.1l-12.881,5.45c-9.661,3.964-30.222,13.872-56.976,33.2l-10.405,8.67c-6.44,5.45-23.285,19.818-37.653,38.4l-7.68,9.661,99.585,63.169,9.165,8.175,15.111,14.12c-11.4,11.395-19.322,22.047-24.524,32.452a1039.79,1039.79,0,0,0-56.233,140.706l-6.936,22.295,48.058-18.579L469.863,867l20.809-8.67c.743-.248,84.721-35.424,141.2-52.765L672.5,793.922h.247l.248-.248c8.67-8.422,14.863-20.065,17.836-34.433l16.6,34.433.991-.247a46.963,46.963,0,0,1,15.607-2.725c56.976-1.239,122.127,22.79,122.622,23.038l34.681,12.881-82-113.952,65.647,71.1,8.174-9.908c.5-.744,14.864-18.332,28.984-47.563l5.45-11.891a51.587,51.587,0,0,0,1.982-4.954c47.067-109.989,21.8-232.859-70.6-312.625"/>
    <path class="cls-4" d="M698.263,496.9h0c.247.247.5.247.991.247-.5,0-.744,0-.991-.247"/>
    <path class="cls-4" d="M699.006,497.4a4.586,4.586,0,0,0,1.734.5h0a3.587,3.587,0,0,0-1.734-.5"/>
    <g>
      <path class="cls-3" d="M637.474,403.631,621.31,453.423a169.5,169.5,0,0,1,39.016-2.972Zm62.983,3.53-30.47,44.033a202.009,202.009,0,0,1,20.437,3.158c6.317,1.487,12.634,3.159,18.579,5.2ZM578.392,417.194l-1.858,51.65a168.4,168.4,0,0,1,36.043-13.377ZM759.91,428.713l-42.546,33.814a172.906,172.906,0,0,1,35.672,19.137Zm-236.884,16.35,13.563,51.65a175.831,175.831,0,0,1,32.328-23.6Zm285,18.765-50.349,20.994a167.035,167.035,0,0,1,29.169,28.055Zm38.645,49.978-54.623,5.759A177.922,177.922,0,0,1,812.3,554.68Zm-198.611,9.847c-83.421,1.3-105.9,85.464-105.9,85.464,7.06-7.06,102.371-2.6,102.371-2.6-15.235,61.682-87.694,62.8-87.694,62.8L521.725,808.657l115.191-39.574h0C663.67,759.236,679.834,710,679.834,710l11.519,24.339s12.82,19.694,42.732,23.781h.186A351.188,351.188,0,0,1,798,765.739l-69.486-94.754c7.246,3.159,18.951,9.847,28.612,15.607,6.689-14.306,7.618-39.946,7.246-51.836-9.1-104.6-103.672-110.732-103.672-110.732a96.667,96.667,0,0,0-12.633-.371Zm169.441,40.5A178.659,178.659,0,0,1,825.68,602.8l41.432-29.727-49.607-8.918Zm8.733,52.951c.557,12.819-.558,23.038-3.159,36.043L873.8,640.33Zm-5.2,50.163c-3.53,11.891-6.5,18.022-12.633,28.241l49.42,6.131Z"/>
      <path class="cls-5" d="M644.534,338.233c-2.6,0-5.2,0-7.989.186L668.5,417.751l40.316-73.016c-.185-.185-25.081-7.06-64.283-6.5Zm-17.279.557s-29.355,1.115-70.6,15.792l54.437,65.956Zm89.737,7.432,6.875,85.092,60.2-57.781C784.063,373.719,759.353,357.741,716.992,346.222Zm-168.141,11.89s-23.781,7.989-59.267,33.629l66.884,49.234-7.617-82.863ZM791.5,377.992,772.73,461.227l74.688-37.344c0,.185-18.951-22.295-55.923-45.891ZM483.081,397.314A248.745,248.745,0,0,0,443.693,436.7l70.972,45.147-31.584-84.535Zm368.053,31.771-42.547,74.13,82.492-13.748c0-.186-11.333-27.126-39.945-60.382ZM651.408,464.757c-46.82.743-84.907,26.568-102.929,42.546l18.951,17.836c-10.4,9.475-23.595,22.666-30.841,37.53,0,0-31.027,60.939-55.552,139.158l24.339-9.29s.929-3.53,2.972-9.475c16.908-48.678,22.481-50.721,22.481-50.721,7.06-8.547,23.6-8.733,23.6-8.733l58.338-1.486s-10.4,29.541-77.289,30.47L486.239,848.416s133.213-55.552,178.917-62.24h.372C691.167,761.28,680.206,710,680.206,710s-16.164,49.235-42.918,59.082h0L522.1,808.657l35.115-139.344s72.458-1.3,87.693-62.8c0,0-95.311-4.274-102.371,2.6,0,0,24.71-92.71,118.721-85.093,0,0,94.568,5.945,103.671,110.732.372,11.89-.557,37.53-7.245,51.836-9.662-5.76-21.366-12.263-28.612-15.607l69.672,94.754a337.188,337.188,0,0,0-63.727-7.618h-.186c-30.1-4.087-42.732-23.781-42.732-23.781l21.738,46.076c61.683-4.645,137.485,23.41,137.485,23.41L777.56,701.083c10.776-34.557,8.918-64.1,8.918-64.1-3.716-57.038-34.185-109.617-94.382-128.753,0,0-42.36-14.492-77.661-1.858,0,0,26.011-24.525,84.35-8.732l2.787.743c61.125,19.322,85.835,65.027,96.054,102,3.158,12.077,9.661,40.5,2.787,92.339,0,0,15.978-29.913,14.677-70.044h0C813.975,537.215,744.3,466.057,656.8,464.571c-2.23.186-3.716.186-5.388.186ZM894.8,494.669,832,552.636l82.863,11.333s-2.787-29.169-20.065-69.3Zm21.18,77.1L842.03,609.488l74.5,32.142s5.017-27.869-.557-69.857Zm-.558,77.846-81.934,13.563L894.609,716.5C894.609,716.318,907.8,691.236,915.417,649.619Zm-108.5,56.667,57.41,60.939s13.934-16.907,27.683-45.333l-85.093-15.606Z"/>
    </g>
  </g>
  <g>
    <path class="cls-2" d="M255.318,694.444l15.067,9.917c-3.252,6.294-5.045,13.865-4.124,19.748,1,6.373,3.32,8.767,6.561,8.253,3.465-.551,3.949-4.773,5.353-11.9l2.245-10.53c1.786-9.076,7.209-17.6,17.713-19.267,12.405-1.97,24.494,8.671,27.219,26.075,1.42,9.069-.136,19.616-5.578,28.015l-13.719-8.622c2.619-5.943,3.679-10.884,2.758-16.767-.806-5.148-2.982-8.069-6.222-7.554-3.465.55-3.985,5.281-5.423,12.919l-1.949,10.233c-2.022,10.5-7.4,17.126-17.455,18.724-12.294,1.952-25.01-7.585-28.119-27.44C248.072,716.194,249.62,704.141,255.318,694.444Z"/>
    <path class="cls-2" d="M331.286,754.143l11.555,27.141c6.895,16.192,7.412,32.44-9.642,39.8-16.533,7.139-29.728-3.9-36.333-19.411l-3.4-7.982-21.421,9.249L263.7,783.331ZM310.62,794.658c3.3,7.754,8.392,9.877,14.422,7.272s6.474-7.925,3.269-15.452l-2.816-6.614-17.885,7.724Z"/>
    <path class="cls-2" d="M366.635,826.113l-73.872,23.536,12.715,17.684,14.977-5.967,13.105,18.219-10.3,12.465,13.145,18.3,45.263-63.328ZM346.861,863.5l-3.362,4.068L334.9,855.6l4.882-1.941c6.843-2.535,15.137-6.138,22.2-9.146l.29.4C357.47,850.868,351.4,857.755,346.861,863.5Z"/>
    <path class="cls-2" d="M421.68,888.8l-22.836-20.076-48.341,55.8,15.968,14.029,16.214-18.708,6.129,5.392-5.825,27.839,17.828,15.662,5.657-33.188c8.4,2.24,16.825.451,23.73-7.524C442.254,914.126,434.679,900.222,421.68,888.8Zm-7.074,25.532c-4.163,4.8-9.745,4.437-16.054-1.106l-5.759-5.059,11.9-13.734,5.759,5.059C416.761,905.038,418.77,909.522,414.606,914.335Z"/>
    <path class="cls-2" d="M460.059,937.171l-18.508-10.4,7.937-14.329,55.523,31.189-7.936,14.33-18.508-10.4-27.89,50.352-18.507-10.4Z"/>
    <path class="cls-2" d="M523.4,949.813l-46.363,62.5,20.573,6.9,8.709-13.655,21.2,7.112-1.148,16.176,21.273,7.132.077-78.015Zm5.612,41.977-.373,5.278-13.922-4.66,2.833-4.451c4.084-6.082,8.739-13.887,12.734-20.473l.47.162C530.3,975.3,529.355,984.467,529.012,991.79Z"/>
    <path class="cls-2" d="M574.813,966.041l21.549,2.455,13.944,34.84,5.735,17.394.489.056c-.09-8.037-.557-19.326.46-28.383l2.391-21.283,20.081,2.288-8.267,73.586-21.55-2.456-13.93-34.954-5.747-17.279-.49-.056c.039,8.489.557,19.326-.46,28.383l-2.391,21.284-20.079-2.289Z"/>
    <path class="cls-2" d="M655.78,1037.923l10.806-14.5c6.025,3.677,13.411,5.971,19.3,5.426,6.381-.588,8.9-2.766,8.605-6.057-.32-3.517-4.473-4.278-11.448-6.152l-10.289-2.939c-8.879-2.385-16.974-8.388-17.944-19.053-1.145-12.594,10.183-24.052,27.608-25.66,9.08-.839,19.432,1.409,27.4,7.424l-9.437,13.227c-5.719-3.018-10.546-4.4-16.435-3.859-5.154.475-8.189,2.472-7.889,5.762.319,3.517,4.972,4.346,12.45,6.288l10.012,2.622c10.27,2.713,16.493,8.545,17.422,18.758,1.135,12.481-9.14,24.642-29.019,26.477C676.863,1046.617,665.018,1044.279,655.78,1037.923Z"/>
    <path class="cls-2" d="M757.911,995.411c-9.063-23.1,2.969-43.077,22.907-51.013,11-4.378,20.684-3.333,27.867-.556l-5.738,15.76c-4.832-1.509-9.331-2.168-15.289.2-10.084,4.012-14.736,14.439-9.829,26.943,5.071,12.926,14.085,17.668,27.377,12.378a12.884,12.884,0,0,0,5.232-3.552l-3.742-9.536-11,4.378-5.821-14.834,28.416-11.31,12.889,32.846c-3.443,6.76-11.341,14.314-21.883,18.51C788.442,1023.929,767.14,1018.934,757.911,995.411Z"/>
    <path class="cls-2" d="M894.977,965.642l19.472-13.528L883.907,938.4c4.224-7.654,4.589-16.3-1.379-25-10.416-15.2-25.662-11.244-39.86-1.379l-24.956,17.334,41.763,60.952,17.451-12.12L862.912,957.74l6.7-4.661Zm-34.508-25.017-6.294,4.369-10.276-15,6.284-4.369c6.894-4.791,11.706-5.645,15.305-.395S867.363,935.833,860.469,940.625Z"/>
    <path class="cls-2" d="M902.891,913.031c-18.226-16.05-18.55-36.446-3.951-53.259s34.8-19.135,52.94-3.16c18.226,16.051,19.062,36.9,4.462,53.71S921.117,929.081,902.891,913.031Zm34.714-39.979c-10.05-8.85-19.734-9.467-26.061-2.18s-4.427,16.869,5.623,25.719,20.244,9.917,26.571,2.631S947.656,881.9,937.605,873.052Z"/>
    <path class="cls-2" d="M963.4,841.055,929.074,824.6l9.107-19.269,36.367,17.432c11.851,5.681,17.73,4.376,21.331-3.242s1-13.258-10.846-18.939l-36.368-17.433,8.79-18.6,34.324,16.454c22.678,10.871,28.856,25.373,19.219,45.763S986.076,851.927,963.4,841.055Z"/>
    <path class="cls-2" d="M960.739,752.368l5.037-29.093c3-17.357,11.381-31.252,29.659-28.045,17.721,3.111,22.787,19.619,19.91,36.243l-1.481,8.556,22.958,4.031-3.64,21.025Zm39.279-22.578c1.439-8.312-1.674-12.888-8.137-14.024s-9.719,3.081-11.117,11.148L979.536,734l19.17,3.365Z"/>
  </g>
  <g>
    <ellipse class="cls-6" cx="284.597" cy="642.447" rx="19.597" ry="20.79"/>
    <ellipse class="cls-6" cx="1007.906" cy="642.447" rx="19.597" ry="20.79"/>
  </g>
</svg>
